<svg width="144" height="123" viewBox="0 0 144 123" fill="none" xmlns="http://www.w3.org/2000/svg">
<path d="M119.797 78.7425L74.2289 1.26804C74.0083 0.885482 73.6887 0.566813 73.3025 0.344189C72.9164 0.121566 72.4772 0.00285999 72.0294 5.10366e-05C71.5816 -0.00275791 71.1409 0.110428 70.7519 0.328189C70.3629 0.545951 70.0394 0.860586 69.8139 1.24034L56.1667 24.455C55.7198 25.2149 55.4845 26.0769 55.4845 26.9544C55.4845 27.8319 55.7198 28.6939 56.1667 29.4538L85.8799 79.9957C86.3272 80.7563 86.971 81.3878 87.746 81.8266C88.5211 82.2654 89.4002 82.496 90.2949 82.4951H117.589C118.036 82.4938 118.475 82.3774 118.861 82.1575C119.248 81.9377 119.569 81.622 119.793 81.2422C120.016 80.8623 120.134 80.4315 120.135 79.9929C120.135 79.5542 120.019 79.1231 119.797 78.7425Z" fill="white"/>
<path d="M0.351375 119.234L45.9192 41.7591C46.1428 41.3796 46.4642 41.0645 46.8511 40.8454C47.2379 40.6263 47.6766 40.511 48.1232 40.511C48.5698 40.511 49.0086 40.6263 49.3955 40.8454C49.7823 41.0645 50.1036 41.3796 50.3272 41.7591L63.9814 64.953C64.4282 65.7142 64.6634 66.5773 64.6634 67.4558C64.6634 68.3344 64.4282 69.1975 63.9814 69.9587L34.268 120.501C33.8224 121.261 33.1802 121.893 32.4062 122.332C31.6322 122.771 30.7539 123.001 29.8601 123H2.55889C2.10915 123.002 1.66686 122.887 1.27696 122.667C0.887069 122.447 0.56353 122.13 0.339236 121.747C0.114942 121.364 -0.00211156 120.93 2.88355e-05 120.489C0.00216923 120.047 0.123381 119.614 0.351375 119.234Z" fill="white"/>
<path d="M50.3206 122.983H141.456C141.903 122.983 142.343 122.867 142.729 122.647C143.116 122.427 143.437 122.111 143.66 121.731C143.883 121.351 144.001 120.919 144 120.48C143.999 120.042 143.881 119.611 143.657 119.231L130.024 96.0231C129.576 95.2625 128.933 94.6309 128.158 94.1922C127.383 93.7534 126.504 93.5228 125.609 93.5237H66.1823C65.2876 93.5228 64.4085 93.7534 63.6334 94.1922C62.8583 94.6309 62.2146 95.2625 61.7673 96.0231L48.1203 119.231C47.8961 119.611 47.7778 120.042 47.7771 120.48C47.7765 120.919 47.8935 121.351 48.1165 121.731C48.3395 122.111 48.6608 122.427 49.0477 122.647C49.4346 122.867 49.8736 122.983 50.3206 122.983Z" fill="white"/>
</svg>
