<svg width="1170" height="500" viewBox="0 0 1170 500" fill="none" xmlns="http://www.w3.org/2000/svg">
<path d="M540 239H543.75L547.5 246.5L543.75 254H540L543.75 246.5L540 239Z" fill="white" fill-opacity="0.6"/>
<path d="M547.5 239H551.25L555 246.5L551.25 254H547.5L551.25 246.5L547.5 239Z" fill="white" fill-opacity="0.6"/>
<path d="M555 239H558.75L562.5 246.5L558.75 254H555L558.75 246.5L555 239Z" fill="white" fill-opacity="0.6"/>
<path d="M562.5 239H566.25L570 246.5L566.25 254H562.5L566.25 246.5L562.5 239Z" fill="white" fill-opacity="0.6"/>
<path d="M570 239H573.75L577.5 246.5L573.75 254H570L573.75 246.5L570 239Z" fill="white" fill-opacity="0.6"/>
<path d="M577.5 239H581.25L585 246.5L581.25 254H577.5L581.25 246.5L577.5 239Z" fill="white" fill-opacity="0.6"/>
<path d="M585 239H588.75L592.5 246.5L588.75 254H585L588.75 246.5L585 239Z" fill="white" fill-opacity="0.6"/>
<path d="M592.5 239H596.25L600 246.5L596.25 254H592.5L596.25 246.5L592.5 239Z" fill="white" fill-opacity="0.6"/>
<path d="M600 239H603.75L607.5 246.5L603.75 254H600L603.75 246.5L600 239Z" fill="white" fill-opacity="0.6"/>
<path d="M607.5 239H611.25L615 246.5L611.25 254H607.5L611.25 246.5L607.5 239Z" fill="white" fill-opacity="0.6"/>
<path d="M615 239H618.75L622.5 246.5L618.75 254H615L618.75 246.5L615 239Z" fill="white" fill-opacity="0.6"/>
<path d="M622.5 239H626.25L630 246.5L626.25 254H622.5L626.25 246.5L622.5 239Z" fill="white" fill-opacity="0.6"/>
<g filter="url(#filter0_d_2379_2575)">
<rect x="69" y="233" width="199" height="28" rx="7" fill="black" fill-opacity="0.04" shape-rendering="crispEdges"/>
<rect x="69.5" y="233.5" width="198" height="27" rx="6.5" stroke="#00F2FC" shape-rendering="crispEdges"/>
</g>
<g filter="url(#filter1_d_2379_2575)">
<rect x="902" y="233" width="199" height="28" rx="7" fill="black" fill-opacity="0.04" shape-rendering="crispEdges"/>
<rect x="902.5" y="233.5" width="198" height="27" rx="6.5" stroke="#00F2FC" shape-rendering="crispEdges"/>
</g>
<g filter="url(#filter2_d_2379_2575)">
<rect x="674" y="233" width="199" height="28" rx="7" fill="black" fill-opacity="0.04" shape-rendering="crispEdges"/>
<rect x="674.5" y="233.5" width="198" height="27" rx="6.5" stroke="#DE0CCF" shape-rendering="crispEdges"/>
</g>
<g filter="url(#filter3_d_2379_2575)">
<rect x="297" y="233" width="199" height="28" rx="7" fill="black" fill-opacity="0.04" shape-rendering="crispEdges"/>
<rect x="297.5" y="233.5" width="198" height="27" rx="6.5" stroke="#FF8C38" shape-rendering="crispEdges"/>
</g>
<g filter="url(#filter4_d_2379_2575)">
<rect x="117" y="128" width="103" height="81" rx="7" fill="black" fill-opacity="0.04" shape-rendering="crispEdges"/>
<rect x="118" y="129" width="101" height="79" rx="6" stroke="#00F2FC" stroke-width="2" shape-rendering="crispEdges"/>
</g>
<g filter="url(#filter5_d_2379_2575)">
<rect x="345" y="128" width="103" height="81" rx="7" fill="black" fill-opacity="0.04" shape-rendering="crispEdges"/>
<rect x="346" y="129" width="101" height="79" rx="6" stroke="#FF8C38" stroke-width="2" shape-rendering="crispEdges"/>
</g>
<g filter="url(#filter6_d_2379_2575)">
<rect x="722" y="128" width="103" height="81" rx="7" fill="black" fill-opacity="0.04" shape-rendering="crispEdges"/>
<rect x="723" y="129" width="101" height="79" rx="6" stroke="#DE0CCF" stroke-width="2" shape-rendering="crispEdges"/>
</g>
<g filter="url(#filter7_d_2379_2575)">
<rect x="950" y="128" width="103" height="81" rx="7" fill="black" fill-opacity="0.04" shape-rendering="crispEdges"/>
<rect x="951" y="129" width="101" height="79" rx="6" stroke="#00F2FC" stroke-width="2" shape-rendering="crispEdges"/>
</g>
<path d="M156.845 153.455H153.954L150.354 155.734V158.462L153.684 156.374H153.77V168H156.845V153.455ZM166.005 168.32C169.663 168.32 171.872 165.536 171.879 160.741C171.886 155.983 169.649 153.256 166.005 153.256C162.355 153.256 160.139 155.976 160.132 160.741C160.117 165.521 162.34 168.312 166.005 168.32ZM166.005 165.77C164.336 165.77 163.257 164.094 163.264 160.741C163.271 157.439 164.343 155.777 166.005 155.777C167.66 155.777 168.74 157.439 168.74 160.741C168.747 164.094 167.667 165.77 166.005 165.77ZM179.775 168.32C183.432 168.32 185.641 165.536 185.648 160.741C185.655 155.983 183.418 153.256 179.775 153.256C176.124 153.256 173.908 155.976 173.901 160.741C173.887 165.521 176.11 168.312 179.775 168.32ZM179.775 165.77C178.106 165.77 177.026 164.094 177.033 160.741C177.04 157.439 178.113 155.777 179.775 155.777C181.43 155.777 182.509 157.439 182.509 160.741C182.516 164.094 181.437 165.77 179.775 165.77Z" fill="white"/>
<path d="M161.791 175.364H159.342V182.682H159.24L154.217 175.364H152.058V187H154.518V179.676H154.604L159.666 187H161.791V175.364ZM163.824 187H166.284V182.875H168.08L170.284 187H173L170.528 182.477C171.852 181.909 172.585 180.756 172.585 179.165C172.585 176.852 171.057 175.364 168.415 175.364H163.824V187ZM166.284 180.898V177.375H167.943C169.364 177.375 170.051 178.006 170.051 179.165C170.051 180.318 169.364 180.898 167.955 180.898H166.284ZM176.098 175.364H173.365L177.382 187H180.553L184.564 175.364H181.837L179.018 184.205H178.911L176.098 175.364Z" fill="white"/>
<path d="M127.431 241.364L131.675 248.886V253H134.119V248.886L138.363 241.364H135.607L132.954 246.375H132.84L130.187 241.364H127.431ZM141.792 253.17C144.44 253.17 146.087 251.358 146.087 248.67C146.087 245.966 144.44 244.159 141.792 244.159C139.144 244.159 137.496 245.966 137.496 248.67C137.496 251.358 139.144 253.17 141.792 253.17ZM141.803 251.295C140.582 251.295 139.957 250.176 139.957 248.653C139.957 247.131 140.582 246.006 141.803 246.006C143.002 246.006 143.627 247.131 143.627 248.653C143.627 250.176 143.002 251.295 141.803 251.295ZM153.258 249.284C153.263 250.455 152.462 251.068 151.593 251.068C150.678 251.068 150.087 250.426 150.082 249.398V244.273H147.661V249.83C147.667 251.869 148.86 253.114 150.616 253.114C151.928 253.114 152.871 252.438 153.263 251.415H153.354V253H155.678V244.273H153.258V249.284ZM157.614 253H160.035V248.062C160.035 246.989 160.819 246.25 161.887 246.25C162.222 246.25 162.683 246.307 162.91 246.381V244.233C162.694 244.182 162.393 244.148 162.148 244.148C161.171 244.148 160.37 244.716 160.052 245.795H159.961V244.273H157.614V253ZM175.126 246.761C174.91 245.153 173.614 244.159 171.41 244.159C169.177 244.159 167.705 245.193 167.711 246.875C167.705 248.182 168.529 249.028 170.234 249.369L171.745 249.67C172.506 249.824 172.853 250.102 172.864 250.54C172.853 251.057 172.29 251.426 171.444 251.426C170.58 251.426 170.006 251.057 169.859 250.347L167.478 250.472C167.705 252.142 169.126 253.17 171.438 253.17C173.7 253.17 175.319 252.017 175.325 250.295C175.319 249.034 174.495 248.278 172.802 247.932L171.222 247.614C170.41 247.438 170.109 247.159 170.114 246.739C170.109 246.216 170.7 245.875 171.45 245.875C172.29 245.875 172.79 246.335 172.91 246.898L175.126 246.761ZM181.491 244.273H179.849V242.182H177.428V244.273H176.235V246.091H177.428V250.636C177.417 252.347 178.582 253.193 180.337 253.119C180.962 253.097 181.406 252.972 181.65 252.892L181.269 251.091C181.15 251.114 180.894 251.17 180.667 251.17C180.184 251.17 179.849 250.989 179.849 250.318V246.091H181.491V244.273ZM185.556 253.165C186.846 253.165 187.681 252.602 188.107 251.79H188.175V253H190.471V247.114C190.471 245.034 188.71 244.159 186.766 244.159C184.675 244.159 183.3 245.159 182.965 246.75L185.204 246.932C185.369 246.352 185.886 245.926 186.755 245.926C187.579 245.926 188.05 246.341 188.05 247.057V247.091C188.05 247.653 187.454 247.727 185.937 247.875C184.21 248.034 182.658 248.614 182.658 250.562C182.658 252.29 183.891 253.165 185.556 253.165ZM186.249 251.494C185.505 251.494 184.971 251.148 184.971 250.483C184.971 249.801 185.533 249.466 186.386 249.347C186.914 249.273 187.778 249.148 188.067 248.955V249.881C188.067 250.795 187.312 251.494 186.249 251.494ZM192.349 253H194.769V250.227L195.423 249.483L197.803 253H200.638L197.235 248.051L200.474 244.273H197.695L194.9 247.585H194.769V241.364H192.349V253ZM205.279 253.17C207.438 253.17 208.893 252.119 209.234 250.5L206.995 250.352C206.751 251.017 206.126 251.364 205.319 251.364C204.109 251.364 203.342 250.562 203.342 249.261V249.256H209.285V248.591C209.285 245.625 207.489 244.159 205.183 244.159C202.614 244.159 200.95 245.983 200.95 248.676C200.95 251.443 202.592 253.17 205.279 253.17ZM203.342 247.756C203.393 246.761 204.148 245.966 205.222 245.966C206.273 245.966 207.001 246.716 207.006 247.756H203.342Z" fill="white"/>
<path opacity="0.6" d="M235.889 316.273H234.155L231.994 317.641V319.277L233.993 318.024H234.044V325H235.889V316.273ZM242.74 323.364C242.744 324.412 243.414 325.303 244.662 325.303C245.898 325.303 246.588 324.412 246.584 323.364V322.903C246.588 321.847 245.915 320.964 244.662 320.964C243.431 320.964 242.744 321.855 242.74 322.903V323.364ZM238.262 318.369C238.266 319.418 238.935 320.3 240.179 320.3C241.419 320.3 242.11 319.426 242.105 318.369V317.909C242.11 316.852 241.436 315.97 240.179 315.97C238.96 315.97 238.266 316.852 238.262 317.909V318.369ZM238.679 325H239.791L245.791 316.273H244.679L238.679 325ZM243.98 322.903C243.985 322.486 244.151 322.055 244.662 322.055C245.199 322.055 245.34 322.486 245.335 322.903V323.364C245.34 323.781 245.182 324.203 244.662 324.203C244.142 324.203 243.985 323.768 243.98 323.364V322.903ZM239.51 317.909C239.514 317.504 239.672 317.061 240.179 317.061C240.716 317.061 240.861 317.491 240.857 317.909V318.369C240.861 318.787 240.699 319.209 240.179 319.209C239.676 319.209 239.514 318.787 239.51 318.369V317.909ZM254.028 325.128C256.013 325.128 257.249 323.768 257.249 321.753C257.249 319.724 256.013 318.369 254.028 318.369C252.042 318.369 250.806 319.724 250.806 321.753C250.806 323.768 252.042 325.128 254.028 325.128ZM254.036 323.722C253.12 323.722 252.651 322.882 252.651 321.74C252.651 320.598 253.12 319.754 254.036 319.754C254.935 319.754 255.404 320.598 255.404 321.74C255.404 322.882 254.935 323.722 254.036 323.722ZM261.949 318.455H260.65V318.016C260.65 317.572 260.829 317.312 261.361 317.312C261.579 317.312 261.8 317.359 261.945 317.406L262.265 316.043C262.039 315.974 261.54 315.864 260.982 315.864C259.751 315.864 258.834 316.558 258.834 317.982V318.455H257.91V319.818H258.834V325H260.65V319.818H261.949V318.455ZM269.317 318.455H268.086V316.886H266.27V318.455H265.376V319.818H266.27V323.227C266.262 324.51 267.135 325.145 268.452 325.089C268.921 325.072 269.253 324.979 269.437 324.919L269.151 323.568C269.062 323.585 268.87 323.628 268.699 323.628C268.337 323.628 268.086 323.491 268.086 322.989V319.818H269.317V318.455ZM273.387 325.128C275.373 325.128 276.608 323.768 276.608 321.753C276.608 319.724 275.373 318.369 273.387 318.369C271.401 318.369 270.165 319.724 270.165 321.753C270.165 323.768 271.401 325.128 273.387 325.128ZM273.395 323.722C272.479 323.722 272.01 322.882 272.01 321.74C272.01 320.598 272.479 319.754 273.395 319.754C274.295 319.754 274.763 320.598 274.763 321.74C274.763 322.882 274.295 323.722 273.395 323.722ZM281.27 318.455H280.039V316.886H278.224V318.455H277.329V319.818H278.224V323.227C278.215 324.51 279.089 325.145 280.405 325.089C280.874 325.072 281.206 324.979 281.39 324.919L281.104 323.568C281.015 323.585 280.823 323.628 280.653 323.628C280.29 323.628 280.039 323.491 280.039 322.989V319.818H281.27V318.455ZM284.319 325.124C285.287 325.124 285.913 324.702 286.233 324.092H286.284V325H288.006V320.585C288.006 319.026 286.684 318.369 285.227 318.369C283.659 318.369 282.628 319.119 282.376 320.312L284.055 320.449C284.179 320.014 284.567 319.695 285.219 319.695C285.836 319.695 286.19 320.006 286.19 320.543V320.568C286.19 320.99 285.743 321.045 284.605 321.156C283.309 321.276 282.146 321.71 282.146 323.172C282.146 324.467 283.071 325.124 284.319 325.124ZM284.839 323.871C284.281 323.871 283.881 323.611 283.881 323.112C283.881 322.601 284.302 322.349 284.942 322.26C285.338 322.205 285.986 322.111 286.203 321.966V322.661C286.203 323.347 285.636 323.871 284.839 323.871ZM291.229 316.273H289.414V325H291.229V316.273ZM300.907 320.321C300.745 319.115 299.773 318.369 298.12 318.369C296.445 318.369 295.341 319.145 295.346 320.406C295.341 321.386 295.959 322.021 297.238 322.277L298.371 322.503C298.942 322.618 299.202 322.827 299.211 323.155C299.202 323.543 298.78 323.82 298.145 323.82C297.498 323.82 297.067 323.543 296.956 323.01L295.171 323.104C295.341 324.357 296.407 325.128 298.141 325.128C299.837 325.128 301.052 324.263 301.056 322.972C301.052 322.026 300.434 321.459 299.164 321.199L297.979 320.96C297.37 320.828 297.144 320.619 297.148 320.304C297.144 319.912 297.587 319.656 298.15 319.656C298.78 319.656 299.155 320.001 299.245 320.423L300.907 320.321ZM305.681 318.455H304.449V316.886H302.634V318.455H301.739V319.818H302.634V323.227C302.625 324.51 303.499 325.145 304.816 325.089C305.284 325.072 305.617 324.979 305.8 324.919L305.514 323.568C305.425 323.585 305.233 323.628 305.063 323.628C304.7 323.628 304.449 323.491 304.449 322.989V319.818H305.681V318.455ZM308.73 325.124C309.697 325.124 310.323 324.702 310.643 324.092H310.694V325H312.416V320.585C312.416 319.026 311.095 318.369 309.637 318.369C308.069 318.369 307.038 319.119 306.786 320.312L308.465 320.449C308.589 320.014 308.977 319.695 309.629 319.695C310.247 319.695 310.6 320.006 310.6 320.543V320.568C310.6 320.99 310.153 321.045 309.015 321.156C307.72 321.276 306.556 321.71 306.556 323.172C306.556 324.467 307.481 325.124 308.73 325.124ZM309.249 323.871C308.691 323.871 308.291 323.611 308.291 323.112C308.291 322.601 308.713 322.349 309.352 322.26C309.748 322.205 310.396 322.111 310.613 321.966V322.661C310.613 323.347 310.046 323.871 309.249 323.871ZM313.824 325H315.639V322.92L316.129 322.362L317.915 325H320.041L317.489 321.288L319.918 318.455H317.834L315.737 320.939H315.639V316.273H313.824V325ZM323.522 325.128C325.141 325.128 326.232 324.339 326.488 323.125L324.809 323.014C324.626 323.513 324.157 323.773 323.552 323.773C322.644 323.773 322.069 323.172 322.069 322.196V322.192H326.526V321.693C326.526 319.469 325.18 318.369 323.449 318.369C321.523 318.369 320.275 319.737 320.275 321.757C320.275 323.832 321.506 325.128 323.522 325.128ZM322.069 321.067C322.107 320.321 322.674 319.724 323.479 319.724C324.268 319.724 324.813 320.287 324.817 321.067H322.069ZM330.123 325.107C331.18 325.107 331.729 324.497 331.981 323.952H332.057V325H333.847V316.273H332.036V319.554H331.981C331.738 319.021 331.214 318.369 330.118 318.369C328.682 318.369 327.468 319.486 327.468 321.736C327.468 323.926 328.631 325.107 330.123 325.107ZM330.698 323.662C329.807 323.662 329.322 322.869 329.322 321.727C329.322 320.594 329.799 319.814 330.698 319.814C331.58 319.814 332.074 320.56 332.074 321.727C332.074 322.895 331.572 323.662 330.698 323.662Z" fill="white"/>
<path d="M355.67 243.392H359.232V253H361.664V243.392H365.227V241.364H355.67V243.392ZM369.433 253.17C372.08 253.17 373.728 251.358 373.728 248.67C373.728 245.966 372.08 244.159 369.433 244.159C366.785 244.159 365.137 245.966 365.137 248.67C365.137 251.358 366.785 253.17 369.433 253.17ZM369.444 251.295C368.222 251.295 367.597 250.176 367.597 248.653C367.597 247.131 368.222 246.006 369.444 246.006C370.643 246.006 371.268 247.131 371.268 248.653C371.268 250.176 370.643 251.295 369.444 251.295ZM379.944 244.273H378.302V242.182H375.881V244.273H374.688V246.091H375.881V250.636C375.87 252.347 377.035 253.193 378.79 253.119C379.415 253.097 379.859 252.972 380.103 252.892L379.722 251.091C379.603 251.114 379.347 251.17 379.12 251.17C378.637 251.17 378.302 250.989 378.302 250.318V246.091H379.944V244.273ZM384.009 253.165C385.299 253.165 386.134 252.602 386.56 251.79H386.629V253H388.924V247.114C388.924 245.034 387.163 244.159 385.219 244.159C383.129 244.159 381.754 245.159 381.418 246.75L383.657 246.932C383.822 246.352 384.339 245.926 385.208 245.926C386.032 245.926 386.504 246.341 386.504 247.057V247.091C386.504 247.653 385.907 247.727 384.39 247.875C382.663 248.034 381.112 248.614 381.112 250.562C381.112 252.29 382.344 253.165 384.009 253.165ZM384.702 251.494C383.958 251.494 383.424 251.148 383.424 250.483C383.424 249.801 383.987 249.466 384.839 249.347C385.367 249.273 386.231 249.148 386.521 248.955V249.881C386.521 250.795 385.765 251.494 384.702 251.494ZM393.222 241.364H390.802V253H393.222V241.364ZM406.126 246.761C405.91 245.153 404.614 244.159 402.41 244.159C400.177 244.159 398.705 245.193 398.711 246.875C398.705 248.182 399.529 249.028 401.234 249.369L402.745 249.67C403.506 249.824 403.853 250.102 403.864 250.54C403.853 251.057 403.29 251.426 402.444 251.426C401.58 251.426 401.006 251.057 400.859 250.347L398.478 250.472C398.705 252.142 400.126 253.17 402.438 253.17C404.7 253.17 406.319 252.017 406.325 250.295C406.319 249.034 405.495 248.278 403.802 247.932L402.222 247.614C401.41 247.438 401.109 247.159 401.114 246.739C401.109 246.216 401.7 245.875 402.45 245.875C403.29 245.875 403.79 246.335 403.91 246.898L406.126 246.761ZM412.491 244.273H410.849V242.182H408.428V244.273H407.235V246.091H408.428V250.636C408.417 252.347 409.582 253.193 411.337 253.119C411.962 253.097 412.406 252.972 412.65 252.892L412.269 251.091C412.15 251.114 411.894 251.17 411.667 251.17C411.184 251.17 410.849 250.989 410.849 250.318V246.091H412.491V244.273ZM416.556 253.165C417.846 253.165 418.681 252.602 419.107 251.79H419.175V253H421.471V247.114C421.471 245.034 419.71 244.159 417.766 244.159C415.675 244.159 414.3 245.159 413.965 246.75L416.204 246.932C416.369 246.352 416.886 245.926 417.755 245.926C418.579 245.926 419.05 246.341 419.05 247.057V247.091C419.05 247.653 418.454 247.727 416.937 247.875C415.21 248.034 413.658 248.614 413.658 250.562C413.658 252.29 414.891 253.165 416.556 253.165ZM417.249 251.494C416.505 251.494 415.971 251.148 415.971 250.483C415.971 249.801 416.533 249.466 417.386 249.347C417.914 249.273 418.778 249.148 419.067 248.955V249.881C419.067 250.795 418.312 251.494 417.249 251.494ZM423.349 253H425.769V250.227L426.423 249.483L428.803 253H431.638L428.235 248.051L431.474 244.273H428.695L425.9 247.585H425.769V241.364H423.349V253ZM436.279 253.17C438.438 253.17 439.893 252.119 440.234 250.5L437.995 250.352C437.751 251.017 437.126 251.364 436.319 251.364C435.109 251.364 434.342 250.562 434.342 249.261V249.256H440.285V248.591C440.285 245.625 438.489 244.159 436.183 244.159C433.614 244.159 431.95 245.983 431.95 248.676C431.95 251.443 433.592 253.17 436.279 253.17ZM434.342 247.756C434.393 246.761 435.148 245.966 436.222 245.966C437.273 245.966 438.001 246.716 438.006 247.756H434.342Z" fill="white"/>
<path d="M368.654 153.455H365.763L362.162 155.734V158.462L365.493 156.374H365.578V168H368.654V153.455ZM377.814 168.32C381.471 168.32 383.68 165.536 383.687 160.741C383.694 155.983 381.457 153.256 377.814 153.256C374.163 153.256 371.947 155.976 371.94 160.741C371.926 165.521 374.149 168.312 377.814 168.32ZM377.814 165.77C376.145 165.77 375.065 164.094 375.072 160.741C375.079 157.439 376.152 155.777 377.814 155.777C379.469 155.777 380.548 157.439 380.548 160.741C380.555 164.094 379.476 165.77 377.814 165.77ZM388.591 166.011H386.091L386.056 166.807C385.971 168.739 385.417 170.72 385.211 171.551H387.171C387.512 170.692 388.322 168.675 388.513 166.793L388.591 166.011ZM396.427 168.32C400.085 168.32 402.294 165.536 402.301 160.741C402.308 155.983 400.07 153.256 396.427 153.256C392.776 153.256 390.561 155.976 390.553 160.741C390.539 165.521 392.762 168.312 396.427 168.32ZM396.427 165.77C394.758 165.77 393.678 164.094 393.686 160.741C393.693 157.439 394.765 155.777 396.427 155.777C398.082 155.777 399.161 157.439 399.161 160.741C399.169 164.094 398.089 165.77 396.427 165.77ZM410.197 168.32C413.854 168.32 416.063 165.536 416.07 160.741C416.077 155.983 413.84 153.256 410.197 153.256C406.546 153.256 404.33 155.976 404.323 160.741C404.309 165.521 406.532 168.312 410.197 168.32ZM410.197 165.77C408.528 165.77 407.448 164.094 407.455 160.741C407.462 157.439 408.535 155.777 410.197 155.777C411.851 155.777 412.931 157.439 412.931 160.741C412.938 164.094 411.858 165.77 410.197 165.77ZM423.966 168.32C427.624 168.32 429.833 165.536 429.84 160.741C429.847 155.983 427.61 153.256 423.966 153.256C420.316 153.256 418.1 155.976 418.093 160.741C418.078 165.521 420.301 168.312 423.966 168.32ZM423.966 165.77C422.297 165.77 421.218 164.094 421.225 160.741C421.232 157.439 422.304 155.777 423.966 155.777C425.621 155.777 426.7 157.439 426.7 160.741C426.708 164.094 425.628 165.77 423.966 165.77Z" fill="white"/>
<path d="M390.791 175.364H388.342V182.682H388.24L383.217 175.364H381.058V187H383.518V179.676H383.604L388.666 187H390.791V175.364ZM392.824 187H395.284V182.875H397.08L399.284 187H402L399.528 182.477C400.852 181.909 401.585 180.756 401.585 179.165C401.585 176.852 400.057 175.364 397.415 175.364H392.824V187ZM395.284 180.898V177.375H396.943C398.364 177.375 399.051 178.006 399.051 179.165C399.051 180.318 398.364 180.898 396.955 180.898H395.284ZM405.098 175.364H402.365L406.382 187H409.553L413.564 175.364H410.837L408.018 184.205H407.911L405.098 175.364Z" fill="white"/>
<path d="M744.585 168.199C747.824 168.199 750.026 166.089 750.018 163.149C750.026 160.365 748.08 158.362 745.459 158.362C744.18 158.362 743.08 158.895 742.568 159.612H742.483L742.859 155.969H749.216V153.455H740.324L739.635 161.125L742.369 161.615C742.817 161.011 743.683 160.635 744.543 160.635C746.006 160.642 747.057 161.7 747.057 163.227C747.057 164.74 746.027 165.784 744.585 165.784C743.364 165.784 742.376 165.017 742.305 163.888H739.322C739.379 166.402 741.574 168.199 744.585 168.199ZM757.866 168.32C761.524 168.32 763.733 165.536 763.74 160.741C763.747 155.983 761.51 153.256 757.866 153.256C754.216 153.256 752 155.976 751.993 160.741C751.979 165.521 754.202 168.312 757.866 168.32ZM757.866 165.77C756.197 165.77 755.118 164.094 755.125 160.741C755.132 157.439 756.205 155.777 757.866 155.777C759.521 155.777 760.601 157.439 760.601 160.741C760.608 164.094 759.528 165.77 757.866 165.77ZM768.644 166.011H766.144L766.109 166.807C766.023 168.739 765.469 170.72 765.263 171.551H767.224C767.565 170.692 768.374 168.675 768.566 166.793L768.644 166.011ZM776.48 168.32C780.137 168.32 782.346 165.536 782.353 160.741C782.36 155.983 780.123 153.256 776.48 153.256C772.829 153.256 770.613 155.976 770.606 160.741C770.592 165.521 772.815 168.312 776.48 168.32ZM776.48 165.77C774.811 165.77 773.731 164.094 773.738 160.741C773.745 157.439 774.818 155.777 776.48 155.777C778.135 155.777 779.214 157.439 779.214 160.741C779.221 164.094 778.142 165.77 776.48 165.77ZM790.249 168.32C793.907 168.32 796.116 165.536 796.123 160.741C796.13 155.983 793.893 153.256 790.249 153.256C786.599 153.256 784.383 155.976 784.376 160.741C784.362 165.521 786.585 168.312 790.249 168.32ZM790.249 165.77C788.58 165.77 787.501 164.094 787.508 160.741C787.515 157.439 788.587 155.777 790.249 155.777C791.904 155.777 792.984 157.439 792.984 160.741C792.991 164.094 791.911 165.77 790.249 165.77ZM804.019 168.32C807.676 168.32 809.885 165.536 809.892 160.741C809.9 155.983 807.662 153.256 804.019 153.256C800.368 153.256 798.152 155.976 798.145 160.741C798.131 165.521 800.354 168.312 804.019 168.32ZM804.019 165.77C802.35 165.77 801.27 164.094 801.277 160.741C801.284 157.439 802.357 155.777 804.019 155.777C805.674 155.777 806.753 157.439 806.753 160.741C806.76 164.094 805.681 165.77 804.019 165.77Z" fill="white"/>
<path d="M767.791 175.364H765.342V182.682H765.24L760.217 175.364H758.058V187H760.518V179.676H760.604L765.666 187H767.791V175.364ZM769.824 187H772.284V182.875H774.08L776.284 187H779L776.528 182.477C777.852 181.909 778.585 180.756 778.585 179.165C778.585 176.852 777.057 175.364 774.415 175.364H769.824V187ZM772.284 180.898V177.375H773.943C775.364 177.375 776.051 178.006 776.051 179.165C776.051 180.318 775.364 180.898 773.955 180.898H772.284ZM782.098 175.364H779.365L783.382 187H786.553L790.564 175.364H787.837L785.018 184.205H784.911L782.098 175.364Z" fill="white"/>
<path d="M727.074 253H729.534V248.875H731.33L733.534 253H736.25L733.778 248.477C735.102 247.909 735.835 246.756 735.835 245.165C735.835 242.852 734.307 241.364 731.665 241.364H727.074V253ZM729.534 246.898V243.375H731.193C732.614 243.375 733.301 244.006 733.301 245.165C733.301 246.318 732.614 246.898 731.205 246.898H729.534ZM741.365 253.17C743.524 253.17 744.979 252.119 745.32 250.5L743.081 250.352C742.837 251.017 742.212 251.364 741.405 251.364C740.195 251.364 739.428 250.562 739.428 249.261V249.256H745.371V248.591C745.371 245.625 743.575 244.159 741.268 244.159C738.7 244.159 737.036 245.983 737.036 248.676C737.036 251.443 738.678 253.17 741.365 253.17ZM739.428 247.756C739.479 246.761 740.234 245.966 741.308 245.966C742.359 245.966 743.087 246.716 743.092 247.756H739.428ZM748.609 253H751.166L752.666 247.511H752.774L754.274 253H756.837L759.206 244.273H756.763L755.433 250.102H755.359L753.928 244.273H751.524L750.115 250.136H750.036L748.683 244.273H746.234L748.609 253ZM762.986 253.165C764.276 253.165 765.111 252.602 765.537 251.79H765.605V253H767.901V247.114C767.901 245.034 766.139 244.159 764.196 244.159C762.105 244.159 760.73 245.159 760.395 246.75L762.634 246.932C762.798 246.352 763.315 245.926 764.185 245.926C765.009 245.926 765.48 246.341 765.48 247.057V247.091C765.48 247.653 764.884 247.727 763.366 247.875C761.639 248.034 760.088 248.614 760.088 250.562C760.088 252.29 761.321 253.165 762.986 253.165ZM763.679 251.494C762.935 251.494 762.401 251.148 762.401 250.483C762.401 249.801 762.963 249.466 763.815 249.347C764.344 249.273 765.207 249.148 765.497 248.955V249.881C765.497 250.795 764.741 251.494 763.679 251.494ZM769.778 253H772.199V248.062C772.199 246.989 772.983 246.25 774.051 246.25C774.386 246.25 774.847 246.307 775.074 246.381V244.233C774.858 244.182 774.557 244.148 774.312 244.148C773.335 244.148 772.534 244.716 772.216 245.795H772.125V244.273H769.778V253ZM779.135 253.142C780.544 253.142 781.277 252.33 781.612 251.602H781.714V253H784.101V241.364H781.686V245.739H781.612C781.288 245.028 780.589 244.159 779.129 244.159C777.214 244.159 775.595 245.648 775.595 248.648C775.595 251.568 777.146 253.142 779.135 253.142ZM779.902 251.216C778.714 251.216 778.067 250.159 778.067 248.636C778.067 247.125 778.703 246.085 779.902 246.085C781.078 246.085 781.737 247.08 781.737 248.636C781.737 250.193 781.067 251.216 779.902 251.216ZM789.794 256.273H792.214V251.602H792.288C792.624 252.33 793.357 253.142 794.766 253.142C796.754 253.142 798.305 251.568 798.305 248.648C798.305 245.648 796.686 244.159 794.771 244.159C793.311 244.159 792.612 245.028 792.288 245.739H792.18V244.273H789.794V256.273ZM792.163 248.636C792.163 247.08 792.822 246.085 793.999 246.085C795.197 246.085 795.834 247.125 795.834 248.636C795.834 250.159 795.186 251.216 793.999 251.216C792.834 251.216 792.163 250.193 792.163 248.636ZM803.862 253.17C806.51 253.17 808.158 251.358 808.158 248.67C808.158 245.966 806.51 244.159 803.862 244.159C801.214 244.159 799.567 245.966 799.567 248.67C799.567 251.358 801.214 253.17 803.862 253.17ZM803.874 251.295C802.652 251.295 802.027 250.176 802.027 248.653C802.027 247.131 802.652 246.006 803.874 246.006C805.072 246.006 805.697 247.131 805.697 248.653C805.697 250.176 805.072 251.295 803.874 251.295ZM813.675 253.17C816.322 253.17 817.97 251.358 817.97 248.67C817.97 245.966 816.322 244.159 813.675 244.159C811.027 244.159 809.379 245.966 809.379 248.67C809.379 251.358 811.027 253.17 813.675 253.17ZM813.686 251.295C812.464 251.295 811.839 250.176 811.839 248.653C811.839 247.131 812.464 246.006 813.686 246.006C814.885 246.006 815.51 247.131 815.51 248.653C815.51 250.176 814.885 251.295 813.686 251.295ZM821.964 241.364H819.544V253H821.964V241.364Z" fill="white"/>
<path opacity="0.6" d="M847.537 316.273H845.803L843.643 317.641V319.277L845.641 318.024H845.692V325H847.537V316.273ZM854.389 323.364C854.393 324.412 855.062 325.303 856.311 325.303C857.546 325.303 858.237 324.412 858.232 323.364V322.903C858.237 321.847 857.563 320.964 856.311 320.964C855.079 320.964 854.393 321.855 854.389 322.903V323.364ZM849.91 318.369C849.914 319.418 850.583 320.3 851.828 320.3C853.068 320.3 853.758 319.426 853.754 318.369V317.909C853.758 316.852 853.085 315.97 851.828 315.97C850.609 315.97 849.914 316.852 849.91 317.909V318.369ZM850.328 325H851.44L857.44 316.273H856.328L850.328 325ZM855.629 322.903C855.633 322.486 855.799 322.055 856.311 322.055C856.847 322.055 856.988 322.486 856.984 322.903V323.364C856.988 323.781 856.83 324.203 856.311 324.203C855.791 324.203 855.633 323.768 855.629 323.364V322.903ZM851.159 317.909C851.163 317.504 851.32 317.061 851.828 317.061C852.365 317.061 852.509 317.491 852.505 317.909V318.369C852.509 318.787 852.347 319.209 851.828 319.209C851.325 319.209 851.163 318.787 851.159 318.369V317.909ZM865.676 325.128C867.662 325.128 868.898 323.768 868.898 321.753C868.898 319.724 867.662 318.369 865.676 318.369C863.69 318.369 862.454 319.724 862.454 321.753C862.454 323.768 863.69 325.128 865.676 325.128ZM865.684 323.722C864.768 323.722 864.3 322.882 864.3 321.74C864.3 320.598 864.768 319.754 865.684 319.754C866.584 319.754 867.052 320.598 867.052 321.74C867.052 322.882 866.584 323.722 865.684 323.722ZM873.598 318.455H872.298V318.016C872.298 317.572 872.477 317.312 873.01 317.312C873.227 317.312 873.449 317.359 873.594 317.406L873.913 316.043C873.687 315.974 873.189 315.864 872.631 315.864C871.399 315.864 870.483 316.558 870.483 317.982V318.455H869.558V319.818H870.483V325H872.298V319.818H873.598V318.455ZM880.966 318.455H879.734V316.886H877.919V318.455H877.024V319.818H877.919V323.227C877.91 324.51 878.784 325.145 880.101 325.089C880.569 325.072 880.902 324.979 881.085 324.919L880.8 323.568C880.71 323.585 880.518 323.628 880.348 323.628C879.986 323.628 879.734 323.491 879.734 322.989V319.818H880.966V318.455ZM885.035 325.128C887.021 325.128 888.257 323.768 888.257 321.753C888.257 319.724 887.021 318.369 885.035 318.369C883.05 318.369 881.814 319.724 881.814 321.753C881.814 323.768 883.05 325.128 885.035 325.128ZM885.044 323.722C884.128 323.722 883.659 322.882 883.659 321.74C883.659 320.598 884.128 319.754 885.044 319.754C885.943 319.754 886.412 320.598 886.412 321.74C886.412 322.882 885.943 323.722 885.044 323.722ZM892.919 318.455H891.687V316.886H889.872V318.455H888.977V319.818H889.872V323.227C889.863 324.51 890.737 325.145 892.054 325.089C892.523 325.072 892.855 324.979 893.038 324.919L892.753 323.568C892.663 323.585 892.471 323.628 892.301 323.628C891.939 323.628 891.687 323.491 891.687 322.989V319.818H892.919V318.455ZM895.968 325.124C896.935 325.124 897.562 324.702 897.881 324.092H897.932V325H899.654V320.585C899.654 319.026 898.333 318.369 896.876 318.369C895.307 318.369 894.276 319.119 894.025 320.312L895.704 320.449C895.827 320.014 896.215 319.695 896.867 319.695C897.485 319.695 897.839 320.006 897.839 320.543V320.568C897.839 320.99 897.391 321.045 896.253 321.156C894.958 321.276 893.795 321.71 893.795 323.172C893.795 324.467 894.719 325.124 895.968 325.124ZM896.488 323.871C895.93 323.871 895.529 323.611 895.529 323.112C895.529 322.601 895.951 322.349 896.59 322.26C896.986 322.205 897.634 322.111 897.851 321.966V322.661C897.851 323.347 897.285 323.871 896.488 323.871ZM902.878 316.273H901.062V325H902.878V316.273ZM907.109 327.455H908.925V323.952H908.98C909.231 324.497 909.781 325.107 910.838 325.107C912.329 325.107 913.493 323.926 913.493 321.736C913.493 319.486 912.278 318.369 910.842 318.369C909.747 318.369 909.223 319.021 908.98 319.554H908.899V318.455H907.109V327.455ZM908.886 321.727C908.886 320.56 909.381 319.814 910.263 319.814C911.162 319.814 911.639 320.594 911.639 321.727C911.639 322.869 911.153 323.662 910.263 323.662C909.389 323.662 908.886 322.895 908.886 321.727ZM917.66 325.128C919.646 325.128 920.882 323.768 920.882 321.753C920.882 319.724 919.646 318.369 917.66 318.369C915.675 318.369 914.439 319.724 914.439 321.753C914.439 323.768 915.675 325.128 917.66 325.128ZM917.669 323.722C916.753 323.722 916.284 322.882 916.284 321.74C916.284 320.598 916.753 319.754 917.669 319.754C918.568 319.754 919.037 320.598 919.037 321.74C919.037 322.882 918.568 323.722 917.669 323.722ZM925.02 325.128C927.006 325.128 928.241 323.768 928.241 321.753C928.241 319.724 927.006 318.369 925.02 318.369C923.034 318.369 921.798 319.724 921.798 321.753C921.798 323.768 923.034 325.128 925.02 325.128ZM925.028 323.722C924.112 323.722 923.643 322.882 923.643 321.74C923.643 320.598 924.112 319.754 925.028 319.754C925.927 319.754 926.396 320.598 926.396 321.74C926.396 322.882 925.927 323.722 925.028 323.722ZM931.237 316.273H929.422V325H931.237V316.273Z" fill="white"/>
<path d="M954.509 241.364L958.754 248.886V253H961.197V248.886L965.441 241.364H962.685L960.032 246.375H959.918L957.265 241.364H954.509ZM968.87 253.17C971.518 253.17 973.165 251.358 973.165 248.67C973.165 245.966 971.518 244.159 968.87 244.159C966.222 244.159 964.575 245.966 964.575 248.67C964.575 251.358 966.222 253.17 968.87 253.17ZM968.881 251.295C967.66 251.295 967.035 250.176 967.035 248.653C967.035 247.131 967.66 246.006 968.881 246.006C970.08 246.006 970.705 247.131 970.705 248.653C970.705 250.176 970.08 251.295 968.881 251.295ZM980.336 249.284C980.342 250.455 979.54 251.068 978.671 251.068C977.756 251.068 977.165 250.426 977.16 249.398V244.273H974.739V249.83C974.745 251.869 975.938 253.114 977.694 253.114C979.006 253.114 979.95 252.438 980.342 251.415H980.433V253H982.756V244.273H980.336V249.284ZM984.692 253H987.113V248.062C987.113 246.989 987.897 246.25 988.965 246.25C989.3 246.25 989.761 246.307 989.988 246.381V244.233C989.772 244.182 989.471 244.148 989.227 244.148C988.249 244.148 987.448 244.716 987.13 245.795H987.039V244.273H984.692V253ZM994.942 253H997.363V248.062C997.363 246.989 998.147 246.25 999.215 246.25C999.55 246.25 1000.01 246.307 1000.24 246.381V244.233C1000.02 244.182 999.721 244.148 999.477 244.148C998.499 244.148 997.698 244.716 997.38 245.795H997.289V244.273H994.942V253ZM1005.06 253.17C1007.22 253.17 1008.67 252.119 1009.01 250.5L1006.78 250.352C1006.53 251.017 1005.91 251.364 1005.1 251.364C1003.89 251.364 1003.12 250.562 1003.12 249.261V249.256H1009.07V248.591C1009.07 245.625 1007.27 244.159 1004.96 244.159C1002.4 244.159 1000.73 245.983 1000.73 248.676C1000.73 251.443 1002.37 253.17 1005.06 253.17ZM1003.12 247.756C1003.17 246.761 1003.93 245.966 1005 245.966C1006.05 245.966 1006.78 246.716 1006.79 247.756H1003.12ZM1012.3 253H1014.86L1016.36 247.511H1016.47L1017.97 253H1020.53L1022.9 244.273H1020.46L1019.13 250.102H1019.05L1017.62 244.273H1015.22L1013.81 250.136H1013.73L1012.38 244.273H1009.93L1012.3 253ZM1026.68 253.165C1027.97 253.165 1028.81 252.602 1029.23 251.79H1029.3V253H1031.6V247.114C1031.6 245.034 1029.83 244.159 1027.89 244.159C1025.8 244.159 1024.43 245.159 1024.09 246.75L1026.33 246.932C1026.49 246.352 1027.01 245.926 1027.88 245.926C1028.7 245.926 1029.18 246.341 1029.18 247.057V247.091C1029.18 247.653 1028.58 247.727 1027.06 247.875C1025.33 248.034 1023.78 248.614 1023.78 250.562C1023.78 252.29 1025.02 253.165 1026.68 253.165ZM1027.37 251.494C1026.63 251.494 1026.1 251.148 1026.1 250.483C1026.1 249.801 1026.66 249.466 1027.51 249.347C1028.04 249.273 1028.9 249.148 1029.19 248.955V249.881C1029.19 250.795 1028.44 251.494 1027.37 251.494ZM1033.47 253H1035.89V248.062C1035.89 246.989 1036.68 246.25 1037.75 246.25C1038.08 246.25 1038.54 246.307 1038.77 246.381V244.233C1038.55 244.182 1038.25 244.148 1038.01 244.148C1037.03 244.148 1036.23 244.716 1035.91 245.795H1035.82V244.273H1033.47V253ZM1042.83 253.142C1044.24 253.142 1044.97 252.33 1045.31 251.602H1045.41V253H1047.8V241.364H1045.38V245.739H1045.31C1044.98 245.028 1044.28 244.159 1042.82 244.159C1040.91 244.159 1039.29 245.648 1039.29 248.648C1039.29 251.568 1040.84 253.142 1042.83 253.142ZM1043.6 251.216C1042.41 251.216 1041.76 250.159 1041.76 248.636C1041.76 247.125 1042.4 246.085 1043.6 246.085C1044.77 246.085 1045.43 247.08 1045.43 248.636C1045.43 250.193 1044.76 251.216 1043.6 251.216Z" fill="white"/>
<path d="M985.777 168.199C989.015 168.199 991.217 166.089 991.21 163.149C991.217 160.365 989.271 158.362 986.65 158.362C985.372 158.362 984.271 158.895 983.76 159.612H983.674L984.051 155.969H990.407V153.455H981.515L980.826 161.125L983.561 161.615C984.008 161.011 984.875 160.635 985.734 160.635C987.197 160.642 988.248 161.7 988.248 163.227C988.248 164.74 987.218 165.784 985.777 165.784C984.555 165.784 983.568 165.017 983.497 163.888H980.514C980.571 166.402 982.765 168.199 985.777 168.199ZM999.058 168.32C1002.72 168.32 1004.92 165.536 1004.93 160.741C1004.94 155.983 1002.7 153.256 999.058 153.256C995.407 153.256 993.191 155.976 993.184 160.741C993.17 165.521 995.393 168.312 999.058 168.32ZM999.058 165.77C997.389 165.77 996.309 164.094 996.316 160.741C996.324 157.439 997.396 155.777 999.058 155.777C1000.71 155.777 1001.79 157.439 1001.79 160.741C1001.8 164.094 1000.72 165.77 999.058 165.77ZM1012.83 168.32C1016.49 168.32 1018.69 165.536 1018.7 160.741C1018.71 155.983 1016.47 153.256 1012.83 153.256C1009.18 153.256 1006.96 155.976 1006.95 160.741C1006.94 165.521 1009.16 168.312 1012.83 168.32ZM1012.83 165.77C1011.16 165.77 1010.08 164.094 1010.09 160.741C1010.09 157.439 1011.17 155.777 1012.83 155.777C1014.48 155.777 1015.56 157.439 1015.56 160.741C1015.57 164.094 1014.49 165.77 1012.83 165.77Z" fill="white"/>
<path d="M993.791 175.364H991.342V182.682H991.24L986.217 175.364H984.058V187H986.518V179.676H986.604L991.666 187H993.791V175.364ZM995.824 187H998.284V182.875H1000.08L1002.28 187H1005L1002.53 182.477C1003.85 181.909 1004.59 180.756 1004.59 179.165C1004.59 176.852 1003.06 175.364 1000.41 175.364H995.824V187ZM998.284 180.898V177.375H999.943C1001.36 177.375 1002.05 178.006 1002.05 179.165C1002.05 180.318 1001.36 180.898 999.955 180.898H998.284ZM1008.1 175.364H1005.37L1009.38 187H1012.55L1016.56 175.364H1013.84L1011.02 184.205H1010.91L1008.1 175.364Z" fill="white"/>
<line x1="168.5" y1="296" x2="168.5" y2="338" stroke="white" stroke-opacity="0.6"/>
<line x1="168.996" y1="337.972" x2="396.998" y2="337.972" stroke="white" stroke-opacity="0.6"/>
<line x1="397.5" y1="296" x2="397.5" y2="338" stroke="white" stroke-opacity="0.6"/>
<line x1="773.5" y1="296" x2="773.5" y2="338" stroke="white" stroke-opacity="0.6"/>
<line x1="773.996" y1="337.972" x2="1002" y2="337.972" stroke="white" stroke-opacity="0.6"/>
<line x1="1002.5" y1="296" x2="1002.5" y2="338" stroke="white" stroke-opacity="0.6"/>
<defs>
<filter id="filter0_d_2379_2575" x="64" y="228" width="209" height="38" filterUnits="userSpaceOnUse" color-interpolation-filters="sRGB">
<feFlood flood-opacity="0" result="BackgroundImageFix"/>
<feColorMatrix in="SourceAlpha" type="matrix" values="0 0 0 0 0 0 0 0 0 0 0 0 0 0 0 0 0 0 127 0" result="hardAlpha"/>
<feOffset/>
<feGaussianBlur stdDeviation="2.5"/>
<feComposite in2="hardAlpha" operator="out"/>
<feColorMatrix type="matrix" values="0 0 0 0 0 0 0 0 0 0.94902 0 0 0 0 0.988235 0 0 0 0.5 0"/>
<feBlend mode="normal" in2="BackgroundImageFix" result="effect1_dropShadow_2379_2575"/>
<feBlend mode="normal" in="SourceGraphic" in2="effect1_dropShadow_2379_2575" result="shape"/>
</filter>
<filter id="filter1_d_2379_2575" x="897" y="228" width="209" height="38" filterUnits="userSpaceOnUse" color-interpolation-filters="sRGB">
<feFlood flood-opacity="0" result="BackgroundImageFix"/>
<feColorMatrix in="SourceAlpha" type="matrix" values="0 0 0 0 0 0 0 0 0 0 0 0 0 0 0 0 0 0 127 0" result="hardAlpha"/>
<feOffset/>
<feGaussianBlur stdDeviation="2.5"/>
<feComposite in2="hardAlpha" operator="out"/>
<feColorMatrix type="matrix" values="0 0 0 0 0 0 0 0 0 0.94902 0 0 0 0 0.988235 0 0 0 0.5 0"/>
<feBlend mode="normal" in2="BackgroundImageFix" result="effect1_dropShadow_2379_2575"/>
<feBlend mode="normal" in="SourceGraphic" in2="effect1_dropShadow_2379_2575" result="shape"/>
</filter>
<filter id="filter2_d_2379_2575" x="669" y="228" width="209" height="38" filterUnits="userSpaceOnUse" color-interpolation-filters="sRGB">
<feFlood flood-opacity="0" result="BackgroundImageFix"/>
<feColorMatrix in="SourceAlpha" type="matrix" values="0 0 0 0 0 0 0 0 0 0 0 0 0 0 0 0 0 0 127 0" result="hardAlpha"/>
<feOffset/>
<feGaussianBlur stdDeviation="2.5"/>
<feComposite in2="hardAlpha" operator="out"/>
<feColorMatrix type="matrix" values="0 0 0 0 0.870588 0 0 0 0 0.0470588 0 0 0 0 0.811765 0 0 0 0.5 0"/>
<feBlend mode="normal" in2="BackgroundImageFix" result="effect1_dropShadow_2379_2575"/>
<feBlend mode="normal" in="SourceGraphic" in2="effect1_dropShadow_2379_2575" result="shape"/>
</filter>
<filter id="filter3_d_2379_2575" x="292" y="228" width="209" height="38" filterUnits="userSpaceOnUse" color-interpolation-filters="sRGB">
<feFlood flood-opacity="0" result="BackgroundImageFix"/>
<feColorMatrix in="SourceAlpha" type="matrix" values="0 0 0 0 0 0 0 0 0 0 0 0 0 0 0 0 0 0 127 0" result="hardAlpha"/>
<feOffset/>
<feGaussianBlur stdDeviation="2.5"/>
<feComposite in2="hardAlpha" operator="out"/>
<feColorMatrix type="matrix" values="0 0 0 0 1 0 0 0 0 0.54902 0 0 0 0 0.219608 0 0 0 0.5 0"/>
<feBlend mode="normal" in2="BackgroundImageFix" result="effect1_dropShadow_2379_2575"/>
<feBlend mode="normal" in="SourceGraphic" in2="effect1_dropShadow_2379_2575" result="shape"/>
</filter>
<filter id="filter4_d_2379_2575" x="112" y="123" width="113" height="91" filterUnits="userSpaceOnUse" color-interpolation-filters="sRGB">
<feFlood flood-opacity="0" result="BackgroundImageFix"/>
<feColorMatrix in="SourceAlpha" type="matrix" values="0 0 0 0 0 0 0 0 0 0 0 0 0 0 0 0 0 0 127 0" result="hardAlpha"/>
<feOffset/>
<feGaussianBlur stdDeviation="2.5"/>
<feComposite in2="hardAlpha" operator="out"/>
<feColorMatrix type="matrix" values="0 0 0 0 0 0 0 0 0 0.94902 0 0 0 0 0.988235 0 0 0 0.5 0"/>
<feBlend mode="normal" in2="BackgroundImageFix" result="effect1_dropShadow_2379_2575"/>
<feBlend mode="normal" in="SourceGraphic" in2="effect1_dropShadow_2379_2575" result="shape"/>
</filter>
<filter id="filter5_d_2379_2575" x="340" y="123" width="113" height="91" filterUnits="userSpaceOnUse" color-interpolation-filters="sRGB">
<feFlood flood-opacity="0" result="BackgroundImageFix"/>
<feColorMatrix in="SourceAlpha" type="matrix" values="0 0 0 0 0 0 0 0 0 0 0 0 0 0 0 0 0 0 127 0" result="hardAlpha"/>
<feOffset/>
<feGaussianBlur stdDeviation="2.5"/>
<feComposite in2="hardAlpha" operator="out"/>
<feColorMatrix type="matrix" values="0 0 0 0 1 0 0 0 0 0.54902 0 0 0 0 0.219608 0 0 0 0.5 0"/>
<feBlend mode="normal" in2="BackgroundImageFix" result="effect1_dropShadow_2379_2575"/>
<feBlend mode="normal" in="SourceGraphic" in2="effect1_dropShadow_2379_2575" result="shape"/>
</filter>
<filter id="filter6_d_2379_2575" x="717" y="123" width="113" height="91" filterUnits="userSpaceOnUse" color-interpolation-filters="sRGB">
<feFlood flood-opacity="0" result="BackgroundImageFix"/>
<feColorMatrix in="SourceAlpha" type="matrix" values="0 0 0 0 0 0 0 0 0 0 0 0 0 0 0 0 0 0 127 0" result="hardAlpha"/>
<feOffset/>
<feGaussianBlur stdDeviation="2.5"/>
<feComposite in2="hardAlpha" operator="out"/>
<feColorMatrix type="matrix" values="0 0 0 0 0.870588 0 0 0 0 0.0470588 0 0 0 0 0.811765 0 0 0 0.5 0"/>
<feBlend mode="normal" in2="BackgroundImageFix" result="effect1_dropShadow_2379_2575"/>
<feBlend mode="normal" in="SourceGraphic" in2="effect1_dropShadow_2379_2575" result="shape"/>
</filter>
<filter id="filter7_d_2379_2575" x="945" y="123" width="113" height="91" filterUnits="userSpaceOnUse" color-interpolation-filters="sRGB">
<feFlood flood-opacity="0" result="BackgroundImageFix"/>
<feColorMatrix in="SourceAlpha" type="matrix" values="0 0 0 0 0 0 0 0 0 0 0 0 0 0 0 0 0 0 127 0" result="hardAlpha"/>
<feOffset/>
<feGaussianBlur stdDeviation="2.5"/>
<feComposite in2="hardAlpha" operator="out"/>
<feColorMatrix type="matrix" values="0 0 0 0 0 0 0 0 0 0.94902 0 0 0 0 0.988235 0 0 0 0.5 0"/>
<feBlend mode="normal" in2="BackgroundImageFix" result="effect1_dropShadow_2379_2575"/>
<feBlend mode="normal" in="SourceGraphic" in2="effect1_dropShadow_2379_2575" result="shape"/>
</filter>
</defs>
</svg>
