<svg width="310" height="382" viewBox="0 0 310 382" fill="none" xmlns="http://www.w3.org/2000/svg">
<path d="M135.726 128.834C133.701 128.508 133.616 128.469 134.569 128.317C136.395 128.026 140.707 128.423 143.679 129.157C150.617 130.87 156.929 135.259 163.668 143.052L165.458 145.123L168.019 144.695C178.808 142.894 189.784 144.326 198.964 148.731C201.489 149.943 205.471 152.356 205.968 152.976C206.127 153.173 206.418 154.445 206.615 155.802C207.297 160.497 206.955 164.096 205.573 166.785C204.821 168.247 204.779 168.711 205.284 169.963C205.688 170.962 206.814 171.701 207.928 171.7C210.21 171.696 212.665 167.865 213.803 162.535L214.255 160.418L215.15 161.471C220.061 167.251 223.918 175.133 224.581 180.743L224.753 182.206L223.928 180.876C222.507 178.588 221.08 177.03 219.252 175.774C215.957 173.509 212.473 172.738 203.247 172.233C194.914 171.777 190.198 171.038 185.522 169.454C177.566 166.759 173.555 163.17 164.104 150.289C159.906 144.568 157.311 141.402 154.73 138.853C148.866 133.06 143.103 130.023 135.726 128.834Z" fill="url(#paint0_linear)"/>
<path d="M207.848 141.609C208.057 137.775 208.558 135.246 209.564 132.937C209.962 132.022 210.336 131.274 210.393 131.274C210.451 131.274 210.278 131.949 210.008 132.774C209.277 135.015 209.157 138.08 209.661 141.647C210.3 146.172 210.664 146.825 215.268 151.714C217.428 154.006 219.94 156.898 220.851 158.14L222.506 160.397L220.851 158.784C218.826 156.811 214.169 152.963 213.14 152.413C212.451 152.044 212.348 152.051 211.923 152.491C211.531 152.896 211.448 153.505 211.393 156.384C211.309 160.872 210.72 163.752 209.299 166.632C208.53 168.19 208.409 167.858 209.105 166.099C209.624 164.787 209.677 164.21 209.673 159.865C209.665 151.137 208.668 149.038 202.817 145.443C201.335 144.533 198.894 143.219 197.391 142.525C195.889 141.83 194.695 141.225 194.739 141.18C194.904 141.009 200.61 142.738 202.906 143.656C206.321 145.021 206.885 145.198 207.3 145.033C207.578 144.923 207.713 144.081 207.848 141.609Z" fill="url(#paint1_linear)"/>
<path d="M139.66 156.541C135.549 150.661 133.005 141.646 133.556 134.907L133.726 132.822L134.662 132.999C136.419 133.332 139.449 134.504 140.868 135.399C144.762 137.856 146.447 141.09 148.162 149.394C148.665 151.827 149.324 154.58 149.627 155.511C150.115 157.012 151.96 160.515 153.46 162.791C154.54 164.43 153.822 165.206 151.434 164.982C147.787 164.64 142.847 161.099 139.66 156.541Z" fill="url(#paint2_linear)"/>
<path d="M202.861 200.3C183.649 192.264 176.882 185.289 176.882 173.52C176.882 171.788 176.939 170.371 177.009 170.371C177.079 170.371 177.823 170.942 178.661 171.641C182.557 174.887 186.92 176.274 198.997 178.104C206.104 179.181 210.104 180.051 213.793 181.322C225.52 185.362 232.775 193.561 234.505 204.728C235.008 207.972 234.713 214.057 233.898 217.264C233.254 219.797 231.291 224.363 230.77 224.538C230.625 224.587 230.484 224.012 230.447 223.23C230.249 219.036 228.209 214.954 224.784 211.896C220.889 208.419 215.656 205.651 202.861 200.3Z" fill="url(#paint3_linear)"/>
<path d="M189.373 203.638C189.133 202.15 188.715 200.25 188.446 199.415L187.955 197.898L188.866 198.96C190.126 200.429 191.122 202.309 191.966 204.813C192.61 206.724 192.682 207.293 192.677 210.398C192.672 213.447 192.592 214.086 191.997 215.807C191.059 218.519 189.895 220.443 187.942 222.507C184.433 226.218 179.921 228.272 173.409 229.124C172.278 229.272 168.979 229.521 166.079 229.678C158.77 230.073 153.96 230.889 149.637 232.465C149.016 232.692 148.461 232.83 148.405 232.772C148.23 232.591 151.173 230.768 153.603 229.552C157.031 227.837 160.443 226.901 168.087 225.579C171.863 224.925 175.763 224.133 176.753 223.817C186.105 220.839 190.912 213.152 189.373 203.638Z" fill="url(#paint4_linear)"/>
<path d="M198.181 219.887C195.628 214.186 195.042 208.682 196.44 203.55C196.59 203.001 196.83 202.552 196.975 202.552C197.12 202.552 197.722 202.891 198.314 203.304C199.49 204.127 201.849 205.512 208.134 209.072C215.977 213.514 220.449 216.954 223.49 220.884C226.153 224.325 227.801 228.245 228.595 233.025C229.044 235.732 228.781 242.247 228.112 244.973C226.003 253.57 221.102 260.322 214.112 264.263C213.088 264.84 212.168 265.314 212.069 265.316C211.969 265.318 212.342 264.332 212.898 263.125C215.25 258.019 215.517 253.052 213.739 247.523C212.651 244.138 210.431 240.007 205.95 233.026C200.74 224.909 199.462 222.749 198.181 219.887Z" fill="url(#paint5_linear)"/>
<path d="M126.016 250.643C133.146 244.39 142.017 239.947 150.097 238.584C153.58 237.996 159.381 238.229 162.606 239.087C167.775 240.461 172.399 243.539 174.804 247.206C177.154 250.79 178.163 253.913 179.212 260.862C179.626 263.604 180.077 266.356 180.213 266.979C181.002 270.581 182.536 273.46 184.437 274.905C187.456 277.201 192.656 277.344 197.771 275.271C198.639 274.919 199.392 274.676 199.445 274.731C199.631 274.923 197.055 276.714 195.238 277.656C192.793 278.925 190.849 279.416 188.266 279.416C183.581 279.416 179.692 276.94 176.447 271.892C175.808 270.899 174.373 267.923 173.257 265.28C169.831 257.162 168.139 254.688 164.16 251.982C160.698 249.627 156.233 249.205 152.874 250.916C148.461 253.163 147.23 259.021 150.391 262.733C151.647 264.208 153.989 265.481 155.904 265.728C159.487 266.191 162.566 263.359 162.566 259.601C162.566 257.161 161.664 255.769 159.391 254.703C156.287 253.248 152.95 254.949 152.966 257.978C152.973 259.27 153.514 260.081 154.761 260.667C155.561 261.043 155.579 261.073 154.927 260.932C152.079 260.319 151.412 256.752 153.702 254.384C156.451 251.541 162.136 252.795 164.089 256.676C164.909 258.306 165.004 261.552 164.289 263.512C162.689 267.899 158.022 270.206 153.288 268.95C150.065 268.095 148.753 267.17 144.867 263.012C138.115 255.786 135.493 254.386 125.759 252.808L123.893 252.505L126.016 250.643Z" fill="url(#paint6_linear)"/>
<path fill-rule="evenodd" clip-rule="evenodd" d="M94.3333 121.322C116.883 149.753 132.414 161.483 134.14 163.961C135.565 166.007 135.029 167.847 132.587 169.289C131.23 170.09 128.439 170.903 127.041 170.903C125.46 170.903 124.918 170.269 124.918 170.269C124.001 169.366 123.485 169.524 118.779 160.846C112.245 150.314 106.777 141.577 106.628 141.431C106.283 141.092 106.289 141.104 118.113 163.081C120.023 167.662 118.493 169.343 118.493 169.996C118.493 171.323 118.144 172.02 116.568 173.846C113.941 176.891 112.766 180.312 111.918 187.392C110.968 195.329 108.296 200.936 100.889 210.531C96.5536 216.148 95.8442 217.178 94.7502 219.441C93.3723 222.292 92.9934 223.889 92.8398 227.489C92.6775 231.295 92.9936 233.754 94.1131 237.393C95.0931 240.579 96.1161 242.683 98.7312 246.891C100.988 250.522 102.288 253.221 102.288 254.276C102.288 255.116 102.442 255.117 105.939 254.297C114.308 252.334 121.104 248.881 124.926 244.649C127.292 242.03 127.847 240.584 127.865 236.994C127.877 234.647 127.797 234.155 127.186 232.805C126.192 230.607 124.382 228.779 120.392 225.945C115.164 222.233 112.931 219.244 112.314 215.133C111.808 211.761 112.395 209.381 115.287 203.084C118.281 196.566 119.022 193.789 119.524 187.219C119.848 182.975 120.297 181.301 121.471 179.957C122.696 178.556 123.798 178.081 126.828 177.651C131.768 176.95 134.913 175.623 137.499 173.147C139.742 171 140.68 168.931 140.825 165.817L140.934 163.456L139.68 161.938C135.141 156.44 91.2934 117 91.0141 117C90.9544 117 92.4481 118.945 94.3333 121.322ZM104.836 231.796C105.862 229.908 105.317 227.48 103.6 226.295C101.978 225.174 99.4581 225.702 99.4581 227.162C99.4581 227.608 99.6953 227.932 100.23 228.218C101.13 228.699 101.195 229.24 100.487 230.345C99.7699 231.465 99.8278 232.45 100.65 233.119C101.976 234.197 103.853 233.604 104.836 231.796Z" fill="url(#paint7_linear)"/>
<path fill-rule="evenodd" clip-rule="evenodd" d="M144.051 178.89C141.732 179.63 139.478 182.183 138.78 184.86C138.354 186.493 138.596 189.358 139.234 190.243C140.264 191.672 141.26 192.049 143.957 192.029C149.239 191.991 153.83 189.638 154.364 186.696C154.801 184.285 152.785 180.943 150.007 179.476C148.574 178.72 145.526 178.419 144.051 178.89ZM150.225 183.905C151.04 182.702 150.683 181.403 149.298 180.524C146.66 178.851 142.671 180.236 142.671 182.825C142.671 184.113 144.752 185.519 146.658 185.519C147.927 185.519 149.664 184.733 150.225 183.905Z" fill="url(#paint8_linear)"/>
<path fill-rule="evenodd" clip-rule="evenodd" d="M113.526 77.5339C81.5457 90.7004 51.6203 116.559 37.9945 149.63C24.3688 182.7 28.3118 219.924 41.8063 251.623C55.2869 283.289 79.2824 314.528 114.279 328.791C149.275 343.053 188.379 337.529 220.326 324.376C252.306 311.209 281.38 287.441 295.006 254.37C308.631 221.3 305.54 181.986 292.046 150.287C278.565 118.621 253.718 89.4717 218.721 75.2095C183.725 60.9473 145.473 64.3811 113.526 77.5339ZM218.738 75.2163C147.766 46.2929 66.8448 79.6088 37.9945 149.63C9.14429 219.65 43.2904 299.86 114.262 328.784C185.234 357.707 266.155 324.391 295.006 254.37C323.856 184.35 289.71 104.14 218.738 75.2163Z" fill="url(#paint9_linear)" style="mix-blend-mode:exclusion"/>
<path d="M40.5 40H39.5L39.5 80L40.5 80L40.5 40Z" fill="url(#paint10_linear)" fill-opacity="0.7"/>
<path d="M0.5 40L40.5 40L40.5 41L0.5 41L0.5 40Z" fill="url(#paint11_linear)" fill-opacity="0.7"/>
<path d="M40.5 64C40.4877 50.7506 29.7494 40.0123 16.5 40L40.5 40L40.5 64Z" fill="url(#paint12_linear)" fill-opacity="0.7"/>
<path d="M40.5 16C40.5123 29.2493 51.2506 39.9877 64.5 40L40.5 40L40.5 16Z" fill="url(#paint13_linear)" fill-opacity="0.7"/>
<path d="M40.5 40L41.5 40L41.5 0H40.5L40.5 40Z" fill="url(#paint14_linear)" fill-opacity="0.7"/>
<path d="M80.5 40L40.5 40L40.5 39L80.5 39V40Z" fill="url(#paint15_linear)" fill-opacity="0.7"/>
<defs>
<linearGradient id="paint0_linear" x1="162.882" y1="117" x2="265.218" y2="316.618" gradientUnits="userSpaceOnUse">
<stop stop-color="white" stop-opacity="0.41"/>
<stop offset="0.5" stop-color="white" stop-opacity="0.5"/>
<stop offset="1" stop-color="white" stop-opacity="0"/>
</linearGradient>
<linearGradient id="paint1_linear" x1="162.882" y1="117" x2="265.218" y2="316.618" gradientUnits="userSpaceOnUse">
<stop stop-color="white" stop-opacity="0.41"/>
<stop offset="0.5" stop-color="white" stop-opacity="0.5"/>
<stop offset="1" stop-color="white" stop-opacity="0"/>
</linearGradient>
<linearGradient id="paint2_linear" x1="162.882" y1="117" x2="265.218" y2="316.618" gradientUnits="userSpaceOnUse">
<stop stop-color="white" stop-opacity="0.41"/>
<stop offset="0.5" stop-color="white" stop-opacity="0.5"/>
<stop offset="1" stop-color="white" stop-opacity="0"/>
</linearGradient>
<linearGradient id="paint3_linear" x1="162.882" y1="117" x2="265.218" y2="316.618" gradientUnits="userSpaceOnUse">
<stop stop-color="white" stop-opacity="0.41"/>
<stop offset="0.5" stop-color="white" stop-opacity="0.5"/>
<stop offset="1" stop-color="white" stop-opacity="0"/>
</linearGradient>
<linearGradient id="paint4_linear" x1="162.882" y1="117" x2="265.218" y2="316.618" gradientUnits="userSpaceOnUse">
<stop stop-color="white" stop-opacity="0.41"/>
<stop offset="0.5" stop-color="white" stop-opacity="0.5"/>
<stop offset="1" stop-color="white" stop-opacity="0"/>
</linearGradient>
<linearGradient id="paint5_linear" x1="162.882" y1="117" x2="265.218" y2="316.618" gradientUnits="userSpaceOnUse">
<stop stop-color="white" stop-opacity="0.41"/>
<stop offset="0.5" stop-color="white" stop-opacity="0.5"/>
<stop offset="1" stop-color="white" stop-opacity="0"/>
</linearGradient>
<linearGradient id="paint6_linear" x1="162.882" y1="117" x2="265.218" y2="316.618" gradientUnits="userSpaceOnUse">
<stop stop-color="white" stop-opacity="0.41"/>
<stop offset="0.5" stop-color="white" stop-opacity="0.5"/>
<stop offset="1" stop-color="white" stop-opacity="0"/>
</linearGradient>
<linearGradient id="paint7_linear" x1="162.882" y1="117" x2="265.218" y2="316.618" gradientUnits="userSpaceOnUse">
<stop stop-color="white" stop-opacity="0.41"/>
<stop offset="0.5" stop-color="white" stop-opacity="0.5"/>
<stop offset="1" stop-color="white" stop-opacity="0"/>
</linearGradient>
<linearGradient id="paint8_linear" x1="162.882" y1="117" x2="265.218" y2="316.618" gradientUnits="userSpaceOnUse">
<stop stop-color="white" stop-opacity="0.41"/>
<stop offset="0.5" stop-color="white" stop-opacity="0.5"/>
<stop offset="1" stop-color="white" stop-opacity="0"/>
</linearGradient>
<linearGradient id="paint9_linear" x1="218.256" y1="75.0151" x2="130.191" y2="348.505" gradientUnits="userSpaceOnUse">
<stop stop-color="white"/>
<stop offset="1" stop-color="white" stop-opacity="0"/>
</linearGradient>
<linearGradient id="paint10_linear" x1="-39.5742" y1="92.482" x2="87.5464" y2="80" gradientUnits="userSpaceOnUse">
<stop stop-color="white" stop-opacity="0"/>
<stop offset="1" stop-color="white" stop-opacity="0.51"/>
</linearGradient>
<linearGradient id="paint11_linear" x1="-39.5742" y1="92.482" x2="87.5464" y2="80" gradientUnits="userSpaceOnUse">
<stop stop-color="white" stop-opacity="0"/>
<stop offset="1" stop-color="white" stop-opacity="0.51"/>
</linearGradient>
<linearGradient id="paint12_linear" x1="-39.5742" y1="92.482" x2="87.5464" y2="80" gradientUnits="userSpaceOnUse">
<stop stop-color="white" stop-opacity="0"/>
<stop offset="1" stop-color="white" stop-opacity="0.51"/>
</linearGradient>
<linearGradient id="paint13_linear" x1="-39.5742" y1="92.482" x2="87.5464" y2="80" gradientUnits="userSpaceOnUse">
<stop stop-color="white" stop-opacity="0"/>
<stop offset="1" stop-color="white" stop-opacity="0.51"/>
</linearGradient>
<linearGradient id="paint14_linear" x1="-39.5742" y1="92.482" x2="87.5464" y2="80" gradientUnits="userSpaceOnUse">
<stop stop-color="white" stop-opacity="0"/>
<stop offset="1" stop-color="white" stop-opacity="0.51"/>
</linearGradient>
<linearGradient id="paint15_linear" x1="-39.5742" y1="92.482" x2="87.5464" y2="80" gradientUnits="userSpaceOnUse">
<stop stop-color="white" stop-opacity="0"/>
<stop offset="1" stop-color="white" stop-opacity="0.51"/>
</linearGradient>
</defs>
</svg>
